<?xml version="1.0" encoding="UTF-8" standalone="no" ?>
<!DOCTYPE svg PUBLIC "-//W3C//DTD SVG 1.1//EN" "http://www.w3.org/Graphics/SVG/1.1/DTD/svg11.dtd">
<svg xmlns="http://www.w3.org/2000/svg" xmlns:xlink="http://www.w3.org/1999/xlink" version="1.1" width="1080" height="2060" viewBox="0 0 1080 2060" xml:space="preserve">
<desc>Created with Fabric.js 5.2.4</desc>
<defs>
</defs>
<rect x="0" y="0" width="100%" height="100%" fill="transparent"></rect>
<g transform="matrix(0 0 0 0 0 0)" id="dd81cd00-7b00-462c-bcbf-ba9db3889cd0"  >
</g>
<g transform="matrix(1 0 0 1 540 1030)" id="d16ada94-0c97-400d-b8de-aaba54d662f1"  >
<rect style="stroke: none; stroke-width: 1; stroke-dasharray: none; stroke-linecap: butt; stroke-dashoffset: 0; stroke-linejoin: miter; stroke-miterlimit: 4; fill: rgb(255,255,255); fill-rule: nonzero; opacity: 1; visibility: hidden;" vector-effect="non-scaling-stroke"  x="-540" y="-1030" rx="0" ry="0" width="1080" height="2060" />
</g>
<g transform="matrix(0 0 0 0 0 0)"  >
<g style=""   >
</g>
</g>
<g transform="matrix(0 0 0 0 0 0)"  >
<g style=""   >
</g>
</g>
<g transform="matrix(1.5 -1.55 1.55 1.5 93.35 495.14)"  >
<path style="stroke: rgb(140, 135, 212); stroke-width: 5; stroke-dasharray: none; stroke-linecap: butt; stroke-dashoffset: 0; stroke-linejoin: miter; stroke-miterlimit: 4; fill: rgb(216,216,216); fill-opacity: 0; fill-rule: nonzero; opacity: 1;" vector-effect="non-scaling-stroke"  transform=" translate(-99.99, -99.7)" d="M 99.987 41.248 L 149.987 70.472 L 149.987 128.92 L 99.987 158.144 L 49.987 128.92 L 49.987 70.472 Z" stroke-linecap="round" />
</g>
<g transform="matrix(1.89 1.05 -1.05 1.89 101.76 1625.84)"  >
<path style="stroke: rgb(140, 135, 212); stroke-width: 5; stroke-dasharray: none; stroke-linecap: butt; stroke-dashoffset: 0; stroke-linejoin: miter; stroke-miterlimit: 4; fill: rgb(216,216,216); fill-opacity: 0; fill-rule: nonzero; opacity: 1;" vector-effect="non-scaling-stroke"  transform=" translate(-129.97, -122.01)" d="M 129.973 72.01 L 190.396 172.01 L 69.549 172.01 L 129.973 72.01 Z" stroke-linecap="round" />
</g>
<g transform="matrix(2.04 0.7 -0.7 2.04 1011.23 963.43)"  >
<ellipse style="stroke: rgb(140, 135, 212); stroke-width: 5; stroke-dasharray: none; stroke-linecap: butt; stroke-dashoffset: 0; stroke-linejoin: miter; stroke-miterlimit: 4; fill: rgb(216,216,216); fill-opacity: 0; fill-rule: nonzero; opacity: 1;" vector-effect="non-scaling-stroke"  cx="0" cy="0" rx="50" ry="50" />
</g>
</svg>